<svg width="1080" height="1080" viewBox="0 0 1080 1080" fill="none" xmlns="http://www.w3.org/2000/svg">
<circle cx="540" cy="540" r="418" fill="#813A32" stroke="#FD92C8" stroke-width="64"/>
<circle cx="123" cy="527" r="25" fill="white"/>
<circle cx="957" cy="532" r="25" fill="white"/>
<path d="M507.556 277.104L490.295 477.261C489.653 484.7 490.82 490.187 493.794 493.722C497.232 497.298 504.996 499.607 517.085 500.649L568.693 505.1L562.979 571.354L474.408 563.716C447.906 561.43 426.76 556.796 410.968 549.814C395.641 542.871 384.627 532.085 377.926 517.455C371.73 502.4 368.171 486.636 367.25 470.163C366.793 453.729 367.748 431.797 370.114 404.365C372.52 376.469 375.274 355.394 378.377 341.142C381.944 326.929 387.989 313.867 396.511 301.955C405.497 290.083 418.115 282.272 434.364 278.52C451.078 274.809 472.686 274.097 499.187 276.382L507.556 277.104ZM596.589 507.506L604.958 508.227C624.951 509.952 640.254 511.74 650.867 513.592C661.986 515.019 672.499 518.033 682.407 522.635C692.355 526.772 698.988 531.325 702.307 536.295C706.09 541.306 709.108 549.763 711.36 561.667C714.118 573.146 715.167 585.415 714.51 598.474C713.852 611.532 712.48 630.15 710.395 654.327C708.31 678.504 706.414 697.779 704.706 712.152C703.038 726.06 699.783 739.363 694.941 752.06C690.604 764.333 686.122 772.846 681.497 777.6C677.336 782.393 669.961 786.441 659.372 789.744C648.822 792.581 637.928 793.984 626.689 793.951C615.956 793.494 600.592 792.403 580.6 790.679L572.231 789.957L596.589 507.506ZM361.774 615.128L449.648 622.706C456.157 623.268 460.029 624.539 461.263 626.519C462.498 628.499 462.854 632.511 462.333 638.555L457.642 692.953C457 700.392 457.469 705.819 459.048 709.234C461.132 712.224 466.359 714.08 474.728 714.802L550.048 721.297L544.335 787.552L441.815 778.71C407.874 775.783 382.571 767.746 365.906 754.599C349.706 741.492 342.848 720.525 345.334 691.699L350.747 628.932C351.589 619.168 355.265 614.567 361.774 615.128ZM535.513 278.812L624.084 286.451C658.025 289.378 683.095 297.395 699.296 310.502C715.961 323.649 723.051 344.636 720.565 373.462L715.152 436.229C714.31 445.993 710.634 450.594 704.125 450.033L616.251 442.455C609.742 441.893 605.87 440.622 604.636 438.642C603.402 436.662 603.045 432.65 603.566 426.606L608.257 372.208C608.899 364.769 608.178 359.554 606.094 356.564C604.514 353.149 599.54 351.081 591.172 350.359L529.799 345.066L535.513 278.812Z" fill="white"/>
</svg>
